%TF.GenerationSoftware,KiCad,Pcbnew,5.1.6*%
%TF.CreationDate,2020-07-15T14:58:38+10:00*%
%TF.ProjectId,macropad_v01,6d616372-6f70-4616-945f-7630312e6b69,rev?*%
%TF.SameCoordinates,Original*%
%TF.FileFunction,Paste,Bot*%
%TF.FilePolarity,Positive*%
%FSLAX46Y46*%
G04 Gerber Fmt 4.6, Leading zero omitted, Abs format (unit mm)*
G04 Created by KiCad (PCBNEW 5.1.6) date 2020-07-15 14:58:38*
%MOMM*%
%LPD*%
G01*
G04 APERTURE LIST*
%ADD10R,3.000000X2.500000*%
%ADD11R,1.500000X1.000000*%
%ADD12R,0.900000X1.200000*%
G04 APERTURE END LIST*
D10*
%TO.C,K3*%
X123440000Y-93980000D03*
X109040000Y-96520000D03*
%TD*%
%TO.C,K2*%
X123440000Y-74930000D03*
X109040000Y-77470000D03*
%TD*%
%TO.C,K9*%
X142490000Y-113030000D03*
X128090000Y-115570000D03*
%TD*%
D11*
%TO.C,LED10*%
X123915000Y-91135000D03*
X123915000Y-87935000D03*
X128815000Y-91135000D03*
X128815000Y-87935000D03*
%TD*%
%TO.C,C10*%
G36*
G01*
X120199999Y-87935000D02*
X121100001Y-87935000D01*
G75*
G02*
X121350000Y-88184999I0J-249999D01*
G01*
X121350000Y-88835001D01*
G75*
G02*
X121100001Y-89085000I-249999J0D01*
G01*
X120199999Y-89085000D01*
G75*
G02*
X119950000Y-88835001I0J249999D01*
G01*
X119950000Y-88184999D01*
G75*
G02*
X120199999Y-87935000I249999J0D01*
G01*
G37*
G36*
G01*
X120199999Y-89985000D02*
X121100001Y-89985000D01*
G75*
G02*
X121350000Y-90234999I0J-249999D01*
G01*
X121350000Y-90885001D01*
G75*
G02*
X121100001Y-91135000I-249999J0D01*
G01*
X120199999Y-91135000D01*
G75*
G02*
X119950000Y-90885001I0J249999D01*
G01*
X119950000Y-90234999D01*
G75*
G02*
X120199999Y-89985000I249999J0D01*
G01*
G37*
%TD*%
%TO.C,C1*%
G36*
G01*
X120199999Y-68885000D02*
X121100001Y-68885000D01*
G75*
G02*
X121350000Y-69134999I0J-249999D01*
G01*
X121350000Y-69785001D01*
G75*
G02*
X121100001Y-70035000I-249999J0D01*
G01*
X120199999Y-70035000D01*
G75*
G02*
X119950000Y-69785001I0J249999D01*
G01*
X119950000Y-69134999D01*
G75*
G02*
X120199999Y-68885000I249999J0D01*
G01*
G37*
G36*
G01*
X120199999Y-70935000D02*
X121100001Y-70935000D01*
G75*
G02*
X121350000Y-71184999I0J-249999D01*
G01*
X121350000Y-71835001D01*
G75*
G02*
X121100001Y-72085000I-249999J0D01*
G01*
X120199999Y-72085000D01*
G75*
G02*
X119950000Y-71835001I0J249999D01*
G01*
X119950000Y-71184999D01*
G75*
G02*
X120199999Y-70935000I249999J0D01*
G01*
G37*
%TD*%
%TO.C,LED9*%
X123915000Y-110185000D03*
X123915000Y-106985000D03*
X128815000Y-110185000D03*
X128815000Y-106985000D03*
%TD*%
%TO.C,LED8*%
X123915000Y-129235000D03*
X123915000Y-126035000D03*
X128815000Y-129235000D03*
X128815000Y-126035000D03*
%TD*%
%TO.C,LED7*%
X142965000Y-129235000D03*
X142965000Y-126035000D03*
X147865000Y-129235000D03*
X147865000Y-126035000D03*
%TD*%
%TO.C,LED6*%
X162015000Y-129235000D03*
X162015000Y-126035000D03*
X166915000Y-129235000D03*
X166915000Y-126035000D03*
%TD*%
%TO.C,LED5*%
X162015000Y-110185000D03*
X162015000Y-106985000D03*
X166915000Y-110185000D03*
X166915000Y-106985000D03*
%TD*%
%TO.C,LED4*%
X162015000Y-91135000D03*
X162015000Y-87935000D03*
X166915000Y-91135000D03*
X166915000Y-87935000D03*
%TD*%
%TO.C,LED3*%
X162015000Y-72085000D03*
X162015000Y-68885000D03*
X166915000Y-72085000D03*
X166915000Y-68885000D03*
%TD*%
%TO.C,LED2*%
X142965000Y-72085000D03*
X142965000Y-68885000D03*
X147865000Y-72085000D03*
X147865000Y-68885000D03*
%TD*%
%TO.C,LED1*%
X123915000Y-72085000D03*
X123915000Y-68885000D03*
X128815000Y-72085000D03*
X128815000Y-68885000D03*
%TD*%
D10*
%TO.C,K20*%
X180590000Y-132080000D03*
X166190000Y-134620000D03*
%TD*%
%TO.C,K19*%
X180590000Y-113030000D03*
X166190000Y-115570000D03*
%TD*%
%TO.C,K18*%
X180590000Y-93980000D03*
X166190000Y-96520000D03*
%TD*%
%TO.C,K17*%
X180590000Y-74930000D03*
X166190000Y-77470000D03*
%TD*%
%TO.C,K16*%
X180590000Y-55880000D03*
X166190000Y-58420000D03*
%TD*%
%TO.C,K15*%
X161540000Y-132080000D03*
X147140000Y-134620000D03*
%TD*%
%TO.C,K14*%
X161540000Y-113030000D03*
X147140000Y-115570000D03*
%TD*%
%TO.C,K13*%
X161540000Y-93980000D03*
X147140000Y-96520000D03*
%TD*%
%TO.C,K12*%
X161540000Y-74930000D03*
X147140000Y-77470000D03*
%TD*%
%TO.C,K11*%
X161540000Y-55880000D03*
X147140000Y-58420000D03*
%TD*%
%TO.C,K10*%
X142490000Y-132080000D03*
X128090000Y-134620000D03*
%TD*%
%TO.C,K8*%
X142490000Y-93980000D03*
X128090000Y-96520000D03*
%TD*%
%TO.C,K7*%
X142490000Y-74930000D03*
X128090000Y-77470000D03*
%TD*%
%TO.C,K6*%
X142490000Y-55880000D03*
X128090000Y-58420000D03*
%TD*%
%TO.C,K5*%
X123440000Y-132080000D03*
X109040000Y-134620000D03*
%TD*%
%TO.C,K4*%
X123440000Y-113030000D03*
X109040000Y-115570000D03*
%TD*%
%TO.C,K1*%
X123440000Y-55880000D03*
X109040000Y-58420000D03*
%TD*%
D12*
%TO.C,D20*%
X172340000Y-141605000D03*
X175640000Y-141605000D03*
%TD*%
%TO.C,D19*%
X172340000Y-122555000D03*
X175640000Y-122555000D03*
%TD*%
%TO.C,D18*%
X172340000Y-103505000D03*
X175640000Y-103505000D03*
%TD*%
%TO.C,D17*%
X172340000Y-84455000D03*
X175640000Y-84455000D03*
%TD*%
%TO.C,D16*%
X172340000Y-65405000D03*
X175640000Y-65405000D03*
%TD*%
%TO.C,D15*%
X153290000Y-141564360D03*
X156590000Y-141564360D03*
%TD*%
%TO.C,D14*%
X153290000Y-122555000D03*
X156590000Y-122555000D03*
%TD*%
%TO.C,D13*%
X153290000Y-103505000D03*
X156590000Y-103505000D03*
%TD*%
%TO.C,D12*%
X153290000Y-84455000D03*
X156590000Y-84455000D03*
%TD*%
%TO.C,D11*%
X153290000Y-65405000D03*
X156590000Y-65405000D03*
%TD*%
%TO.C,D10*%
X134240000Y-141605000D03*
X137540000Y-141605000D03*
%TD*%
%TO.C,D9*%
X134240000Y-122555000D03*
X137540000Y-122555000D03*
%TD*%
%TO.C,D8*%
X134240000Y-103505000D03*
X137540000Y-103505000D03*
%TD*%
%TO.C,D7*%
X134240000Y-84455000D03*
X137540000Y-84455000D03*
%TD*%
%TO.C,D6*%
X134240000Y-65405000D03*
X137540000Y-65405000D03*
%TD*%
%TO.C,D5*%
X115190000Y-141605000D03*
X118490000Y-141605000D03*
%TD*%
%TO.C,D4*%
X115190000Y-122555000D03*
X118490000Y-122555000D03*
%TD*%
%TO.C,D3*%
X115190000Y-103505000D03*
X118490000Y-103505000D03*
%TD*%
%TO.C,D2*%
X115190000Y-84455000D03*
X118490000Y-84455000D03*
%TD*%
%TO.C,D1*%
X115190000Y-65405000D03*
X118490000Y-65405000D03*
%TD*%
%TO.C,C9*%
G36*
G01*
X120199999Y-106985000D02*
X121100001Y-106985000D01*
G75*
G02*
X121350000Y-107234999I0J-249999D01*
G01*
X121350000Y-107885001D01*
G75*
G02*
X121100001Y-108135000I-249999J0D01*
G01*
X120199999Y-108135000D01*
G75*
G02*
X119950000Y-107885001I0J249999D01*
G01*
X119950000Y-107234999D01*
G75*
G02*
X120199999Y-106985000I249999J0D01*
G01*
G37*
G36*
G01*
X120199999Y-109035000D02*
X121100001Y-109035000D01*
G75*
G02*
X121350000Y-109284999I0J-249999D01*
G01*
X121350000Y-109935001D01*
G75*
G02*
X121100001Y-110185000I-249999J0D01*
G01*
X120199999Y-110185000D01*
G75*
G02*
X119950000Y-109935001I0J249999D01*
G01*
X119950000Y-109284999D01*
G75*
G02*
X120199999Y-109035000I249999J0D01*
G01*
G37*
%TD*%
%TO.C,C8*%
G36*
G01*
X120199999Y-126035000D02*
X121100001Y-126035000D01*
G75*
G02*
X121350000Y-126284999I0J-249999D01*
G01*
X121350000Y-126935001D01*
G75*
G02*
X121100001Y-127185000I-249999J0D01*
G01*
X120199999Y-127185000D01*
G75*
G02*
X119950000Y-126935001I0J249999D01*
G01*
X119950000Y-126284999D01*
G75*
G02*
X120199999Y-126035000I249999J0D01*
G01*
G37*
G36*
G01*
X120199999Y-128085000D02*
X121100001Y-128085000D01*
G75*
G02*
X121350000Y-128334999I0J-249999D01*
G01*
X121350000Y-128985001D01*
G75*
G02*
X121100001Y-129235000I-249999J0D01*
G01*
X120199999Y-129235000D01*
G75*
G02*
X119950000Y-128985001I0J249999D01*
G01*
X119950000Y-128334999D01*
G75*
G02*
X120199999Y-128085000I249999J0D01*
G01*
G37*
%TD*%
%TO.C,C7*%
G36*
G01*
X139249999Y-126035000D02*
X140150001Y-126035000D01*
G75*
G02*
X140400000Y-126284999I0J-249999D01*
G01*
X140400000Y-126935001D01*
G75*
G02*
X140150001Y-127185000I-249999J0D01*
G01*
X139249999Y-127185000D01*
G75*
G02*
X139000000Y-126935001I0J249999D01*
G01*
X139000000Y-126284999D01*
G75*
G02*
X139249999Y-126035000I249999J0D01*
G01*
G37*
G36*
G01*
X139249999Y-128085000D02*
X140150001Y-128085000D01*
G75*
G02*
X140400000Y-128334999I0J-249999D01*
G01*
X140400000Y-128985001D01*
G75*
G02*
X140150001Y-129235000I-249999J0D01*
G01*
X139249999Y-129235000D01*
G75*
G02*
X139000000Y-128985001I0J249999D01*
G01*
X139000000Y-128334999D01*
G75*
G02*
X139249999Y-128085000I249999J0D01*
G01*
G37*
%TD*%
%TO.C,C6*%
G36*
G01*
X158299999Y-126035000D02*
X159200001Y-126035000D01*
G75*
G02*
X159450000Y-126284999I0J-249999D01*
G01*
X159450000Y-126935001D01*
G75*
G02*
X159200001Y-127185000I-249999J0D01*
G01*
X158299999Y-127185000D01*
G75*
G02*
X158050000Y-126935001I0J249999D01*
G01*
X158050000Y-126284999D01*
G75*
G02*
X158299999Y-126035000I249999J0D01*
G01*
G37*
G36*
G01*
X158299999Y-128085000D02*
X159200001Y-128085000D01*
G75*
G02*
X159450000Y-128334999I0J-249999D01*
G01*
X159450000Y-128985001D01*
G75*
G02*
X159200001Y-129235000I-249999J0D01*
G01*
X158299999Y-129235000D01*
G75*
G02*
X158050000Y-128985001I0J249999D01*
G01*
X158050000Y-128334999D01*
G75*
G02*
X158299999Y-128085000I249999J0D01*
G01*
G37*
%TD*%
%TO.C,C5*%
G36*
G01*
X158299999Y-106985000D02*
X159200001Y-106985000D01*
G75*
G02*
X159450000Y-107234999I0J-249999D01*
G01*
X159450000Y-107885001D01*
G75*
G02*
X159200001Y-108135000I-249999J0D01*
G01*
X158299999Y-108135000D01*
G75*
G02*
X158050000Y-107885001I0J249999D01*
G01*
X158050000Y-107234999D01*
G75*
G02*
X158299999Y-106985000I249999J0D01*
G01*
G37*
G36*
G01*
X158299999Y-109035000D02*
X159200001Y-109035000D01*
G75*
G02*
X159450000Y-109284999I0J-249999D01*
G01*
X159450000Y-109935001D01*
G75*
G02*
X159200001Y-110185000I-249999J0D01*
G01*
X158299999Y-110185000D01*
G75*
G02*
X158050000Y-109935001I0J249999D01*
G01*
X158050000Y-109284999D01*
G75*
G02*
X158299999Y-109035000I249999J0D01*
G01*
G37*
%TD*%
%TO.C,C4*%
G36*
G01*
X158299999Y-87935000D02*
X159200001Y-87935000D01*
G75*
G02*
X159450000Y-88184999I0J-249999D01*
G01*
X159450000Y-88835001D01*
G75*
G02*
X159200001Y-89085000I-249999J0D01*
G01*
X158299999Y-89085000D01*
G75*
G02*
X158050000Y-88835001I0J249999D01*
G01*
X158050000Y-88184999D01*
G75*
G02*
X158299999Y-87935000I249999J0D01*
G01*
G37*
G36*
G01*
X158299999Y-89985000D02*
X159200001Y-89985000D01*
G75*
G02*
X159450000Y-90234999I0J-249999D01*
G01*
X159450000Y-90885001D01*
G75*
G02*
X159200001Y-91135000I-249999J0D01*
G01*
X158299999Y-91135000D01*
G75*
G02*
X158050000Y-90885001I0J249999D01*
G01*
X158050000Y-90234999D01*
G75*
G02*
X158299999Y-89985000I249999J0D01*
G01*
G37*
%TD*%
%TO.C,C3*%
G36*
G01*
X158299999Y-68885000D02*
X159200001Y-68885000D01*
G75*
G02*
X159450000Y-69134999I0J-249999D01*
G01*
X159450000Y-69785001D01*
G75*
G02*
X159200001Y-70035000I-249999J0D01*
G01*
X158299999Y-70035000D01*
G75*
G02*
X158050000Y-69785001I0J249999D01*
G01*
X158050000Y-69134999D01*
G75*
G02*
X158299999Y-68885000I249999J0D01*
G01*
G37*
G36*
G01*
X158299999Y-70935000D02*
X159200001Y-70935000D01*
G75*
G02*
X159450000Y-71184999I0J-249999D01*
G01*
X159450000Y-71835001D01*
G75*
G02*
X159200001Y-72085000I-249999J0D01*
G01*
X158299999Y-72085000D01*
G75*
G02*
X158050000Y-71835001I0J249999D01*
G01*
X158050000Y-71184999D01*
G75*
G02*
X158299999Y-70935000I249999J0D01*
G01*
G37*
%TD*%
%TO.C,C2*%
G36*
G01*
X139249999Y-68885000D02*
X140150001Y-68885000D01*
G75*
G02*
X140400000Y-69134999I0J-249999D01*
G01*
X140400000Y-69785001D01*
G75*
G02*
X140150001Y-70035000I-249999J0D01*
G01*
X139249999Y-70035000D01*
G75*
G02*
X139000000Y-69785001I0J249999D01*
G01*
X139000000Y-69134999D01*
G75*
G02*
X139249999Y-68885000I249999J0D01*
G01*
G37*
G36*
G01*
X139249999Y-70935000D02*
X140150001Y-70935000D01*
G75*
G02*
X140400000Y-71184999I0J-249999D01*
G01*
X140400000Y-71835001D01*
G75*
G02*
X140150001Y-72085000I-249999J0D01*
G01*
X139249999Y-72085000D01*
G75*
G02*
X139000000Y-71835001I0J249999D01*
G01*
X139000000Y-71184999D01*
G75*
G02*
X139249999Y-70935000I249999J0D01*
G01*
G37*
%TD*%
M02*
