M48
; DRILL file {KiCad 5.1.6} date Fri Jul 17 23:24:58 2020
; FORMAT={-:-/ absolute / metric / decimal}
; #@! TF.CreationDate,2020-07-17T23:24:58+10:00
; #@! TF.GenerationSoftware,Kicad,Pcbnew,5.1.6
FMAT,2
METRIC
T1C0.400
T2C0.700
T3C0.762
T4C1.000
T5C1.092
T6C1.100
T7C1.702
T8C3.000
T9C3.988
%
G90
G05
T1
X91.44Y-67.31
X93.345Y-65.405
X93.345Y-69.85
X94.615Y-63.5
X94.615Y-70.485
X95.885Y-67.31
X100.24Y-81.915
X100.965Y-83.82
X101.587Y-60.312
X102.87Y-116.84
X105.41Y-113.665
X105.41Y-116.84
X108.585Y-69.85
X108.585Y-71.12
X108.585Y-72.39
X108.585Y-73.66
X111.125Y-69.125
X116.84Y-104.775
X116.84Y-123.825
X118.49Y-103.505
X118.49Y-122.555
X120.65Y-69.46
X120.65Y-71.51
X120.65Y-90.56
X120.65Y-109.61
X120.65Y-128.66
X125.73Y-55.88
X125.73Y-74.93
X125.73Y-93.98
X125.73Y-113.03
X125.73Y-132.08
X128.815Y-68.885
X139.7Y-69.46
X144.78Y-55.88
X144.78Y-74.93
X144.78Y-93.98
X144.78Y-113.03
X144.78Y-132.08
X158.75Y-71.51
X158.75Y-90.56
X158.75Y-109.61
X163.83Y-55.88
X163.83Y-74.93
X163.83Y-93.98
X163.83Y-113.03
X163.83Y-132.08
X165.1Y-84.455
X165.1Y-87.63
X165.1Y-103.505
X165.1Y-106.68
X165.1Y-122.555
X165.1Y-124.46
X182.88Y-55.88
X182.88Y-74.93
X182.88Y-93.98
X182.88Y-113.03
X182.88Y-132.08
T2
X95.25Y-140.065
X97.75Y-140.065
X100.25Y-140.065
T3
X97.79Y-135.255
X100.33Y-135.255
X93.98Y-115.57
X93.98Y-118.11
X93.98Y-120.65
X96.52Y-115.57
X96.52Y-118.11
X96.52Y-120.65
X99.06Y-115.57
X99.06Y-118.11
X99.06Y-120.65
X101.6Y-115.57
X101.6Y-118.11
X101.6Y-120.65
X95.25Y-109.855
X97.79Y-109.855
T4
X93.98Y-88.265
X96.52Y-88.265
X99.06Y-88.265
X101.6Y-88.265
T5
X90.17Y-55.88
X90.17Y-58.42
X90.17Y-60.96
X90.17Y-63.5
X90.17Y-66.04
X90.17Y-68.58
X90.17Y-71.12
X90.17Y-73.66
X90.17Y-76.2
X90.17Y-78.74
X90.17Y-81.28
X90.17Y-83.82
X105.41Y-55.88
X105.41Y-58.42
X105.41Y-60.96
X105.41Y-63.5
X105.41Y-66.04
X105.41Y-68.58
X105.41Y-71.12
X105.41Y-73.66
X105.41Y-76.2
X105.41Y-78.74
X105.41Y-81.28
X105.41Y-83.82
T6
X95.407Y-59.055
X95.407Y-65.555
X99.907Y-59.055
X99.907Y-65.555
T7
X168.91Y-80.01
X179.07Y-80.01
X149.86Y-137.16
X160.02Y-137.16
X130.81Y-137.16
X140.97Y-137.16
X149.86Y-99.06
X160.02Y-99.06
X130.81Y-118.11
X140.97Y-118.11
X168.91Y-60.96
X179.07Y-60.96
X111.76Y-99.06
X121.92Y-99.06
X111.76Y-80.01
X121.92Y-80.01
X111.76Y-118.11
X121.92Y-118.11
X149.86Y-118.11
X160.02Y-118.11
X130.81Y-60.96
X140.97Y-60.96
X168.91Y-137.16
X179.07Y-137.16
X149.86Y-60.96
X160.02Y-60.96
X168.91Y-99.06
X179.07Y-99.06
X130.81Y-80.01
X140.97Y-80.01
X130.81Y-99.06
X140.97Y-99.06
X168.91Y-118.11
X179.07Y-118.11
X111.76Y-60.96
X121.92Y-60.96
X111.76Y-137.16
X121.92Y-137.16
X149.86Y-80.01
X160.02Y-80.01
T8
X132.08Y-96.52
X138.43Y-93.98
X170.18Y-115.57
X176.53Y-113.03
X113.03Y-58.42
X119.38Y-55.88
X113.03Y-134.62
X119.38Y-132.08
X151.13Y-77.47
X157.48Y-74.93
X170.18Y-77.47
X176.53Y-74.93
X151.13Y-134.62
X157.48Y-132.08
X132.08Y-134.62
X138.43Y-132.08
X151.13Y-96.52
X157.48Y-93.98
X132.08Y-115.57
X138.43Y-113.03
X170.18Y-58.42
X176.53Y-55.88
X113.03Y-96.52
X119.38Y-93.98
X113.03Y-77.47
X119.38Y-74.93
X113.03Y-115.57
X119.38Y-113.03
X151.13Y-115.57
X157.48Y-113.03
X132.08Y-58.42
X138.43Y-55.88
X170.18Y-134.62
X176.53Y-132.08
X151.13Y-58.42
X157.48Y-55.88
X170.18Y-96.52
X176.53Y-93.98
X132.08Y-77.47
X138.43Y-74.93
T9
X154.94Y-60.96
X173.99Y-99.06
X135.89Y-80.01
X135.89Y-99.06
X173.99Y-118.11
X116.84Y-60.96
X116.84Y-137.16
X154.94Y-80.01
X173.99Y-80.01
X154.94Y-137.16
X135.89Y-137.16
X154.94Y-99.06
X135.89Y-118.11
X173.99Y-60.96
X116.84Y-99.06
X116.84Y-80.01
X116.84Y-118.11
X154.94Y-118.11
X135.89Y-60.96
X173.99Y-137.16
T0
M30
