%TF.GenerationSoftware,KiCad,Pcbnew,5.1.6*%
%TF.CreationDate,2020-07-17T23:24:30+10:00*%
%TF.ProjectId,macropad_v01,6d616372-6f70-4616-945f-7630312e6b69,rev?*%
%TF.SameCoordinates,Original*%
%TF.FileFunction,Soldermask,Top*%
%TF.FilePolarity,Negative*%
%FSLAX46Y46*%
G04 Gerber Fmt 4.6, Leading zero omitted, Abs format (unit mm)*
G04 Created by KiCad (PCBNEW 5.1.6) date 2020-07-17 23:24:30*
%MOMM*%
%LPD*%
G01*
G04 APERTURE LIST*
%ADD10C,1.208000*%
%ADD11C,3.987800*%
%ADD12C,1.701800*%
%ADD13C,3.000000*%
%ADD14C,1.524000*%
%ADD15R,1.752600X1.752600*%
%ADD16C,1.752600*%
%ADD17C,2.000000*%
%ADD18R,1.700000X1.700000*%
%ADD19O,1.700000X1.700000*%
G04 APERTURE END LIST*
D10*
%TO.C,U2*%
X100250000Y-140065000D03*
X97750000Y-140065000D03*
X95250000Y-140065000D03*
%TD*%
D11*
%TO.C,K3*%
X116840000Y-99060000D03*
D12*
X111760000Y-99060000D03*
X121920000Y-99060000D03*
D13*
X119380000Y-93980000D03*
X113030000Y-96520000D03*
%TD*%
D11*
%TO.C,K2*%
X116840000Y-80010000D03*
D12*
X111760000Y-80010000D03*
X121920000Y-80010000D03*
D13*
X119380000Y-74930000D03*
X113030000Y-77470000D03*
%TD*%
D11*
%TO.C,K9*%
X135890000Y-118110000D03*
D12*
X130810000Y-118110000D03*
X140970000Y-118110000D03*
D13*
X138430000Y-113030000D03*
X132080000Y-115570000D03*
%TD*%
D14*
%TO.C,J2*%
X101600000Y-115570000D03*
X99060000Y-115570000D03*
X96520000Y-115570000D03*
X93980000Y-118110000D03*
X93980000Y-115570000D03*
X96520000Y-118110000D03*
X99060000Y-118110000D03*
X101600000Y-118110000D03*
X101600000Y-120650000D03*
X99060000Y-120650000D03*
X96520000Y-120650000D03*
X93980000Y-120650000D03*
%TD*%
%TO.C,C12*%
X97790000Y-109855000D03*
X95250000Y-109855000D03*
%TD*%
%TO.C,C11*%
X100330000Y-135255000D03*
X97790000Y-135255000D03*
%TD*%
D15*
%TO.C,U1*%
X105410000Y-55880000D03*
D16*
X105410000Y-58420000D03*
X105410000Y-60960000D03*
X105410000Y-63500000D03*
X105410000Y-66040000D03*
X105410000Y-68580000D03*
X105410000Y-71120000D03*
X105410000Y-73660000D03*
X105410000Y-76200000D03*
X105410000Y-78740000D03*
X105410000Y-81280000D03*
X90170000Y-83820000D03*
X90170000Y-81280000D03*
X90170000Y-78740000D03*
X90170000Y-76200000D03*
X90170000Y-73660000D03*
X90170000Y-71120000D03*
X90170000Y-68580000D03*
X90170000Y-66040000D03*
X90170000Y-63500000D03*
X90170000Y-60960000D03*
X90170000Y-58420000D03*
X105410000Y-83820000D03*
X90170000Y-55880000D03*
%TD*%
D17*
%TO.C,SW1*%
X99907480Y-65555000D03*
X95407480Y-65555000D03*
X99907480Y-59055000D03*
X95407480Y-59055000D03*
%TD*%
D11*
%TO.C,K20*%
X173990000Y-137160000D03*
D12*
X168910000Y-137160000D03*
X179070000Y-137160000D03*
D13*
X176530000Y-132080000D03*
X170180000Y-134620000D03*
%TD*%
D11*
%TO.C,K19*%
X173990000Y-118110000D03*
D12*
X168910000Y-118110000D03*
X179070000Y-118110000D03*
D13*
X176530000Y-113030000D03*
X170180000Y-115570000D03*
%TD*%
D11*
%TO.C,K18*%
X173990000Y-99060000D03*
D12*
X168910000Y-99060000D03*
X179070000Y-99060000D03*
D13*
X176530000Y-93980000D03*
X170180000Y-96520000D03*
%TD*%
D11*
%TO.C,K17*%
X173990000Y-80010000D03*
D12*
X168910000Y-80010000D03*
X179070000Y-80010000D03*
D13*
X176530000Y-74930000D03*
X170180000Y-77470000D03*
%TD*%
D11*
%TO.C,K16*%
X173990000Y-60960000D03*
D12*
X168910000Y-60960000D03*
X179070000Y-60960000D03*
D13*
X176530000Y-55880000D03*
X170180000Y-58420000D03*
%TD*%
D11*
%TO.C,K15*%
X154940000Y-137160000D03*
D12*
X149860000Y-137160000D03*
X160020000Y-137160000D03*
D13*
X157480000Y-132080000D03*
X151130000Y-134620000D03*
%TD*%
D11*
%TO.C,K14*%
X154940000Y-118110000D03*
D12*
X149860000Y-118110000D03*
X160020000Y-118110000D03*
D13*
X157480000Y-113030000D03*
X151130000Y-115570000D03*
%TD*%
D11*
%TO.C,K13*%
X154940000Y-99060000D03*
D12*
X149860000Y-99060000D03*
X160020000Y-99060000D03*
D13*
X157480000Y-93980000D03*
X151130000Y-96520000D03*
%TD*%
D11*
%TO.C,K12*%
X154940000Y-80010000D03*
D12*
X149860000Y-80010000D03*
X160020000Y-80010000D03*
D13*
X157480000Y-74930000D03*
X151130000Y-77470000D03*
%TD*%
D11*
%TO.C,K11*%
X154940000Y-60960000D03*
D12*
X149860000Y-60960000D03*
X160020000Y-60960000D03*
D13*
X157480000Y-55880000D03*
X151130000Y-58420000D03*
%TD*%
D11*
%TO.C,K10*%
X135890000Y-137160000D03*
D12*
X130810000Y-137160000D03*
X140970000Y-137160000D03*
D13*
X138430000Y-132080000D03*
X132080000Y-134620000D03*
%TD*%
D11*
%TO.C,K8*%
X135890000Y-99060000D03*
D12*
X130810000Y-99060000D03*
X140970000Y-99060000D03*
D13*
X138430000Y-93980000D03*
X132080000Y-96520000D03*
%TD*%
D11*
%TO.C,K7*%
X135890000Y-80010000D03*
D12*
X130810000Y-80010000D03*
X140970000Y-80010000D03*
D13*
X138430000Y-74930000D03*
X132080000Y-77470000D03*
%TD*%
D11*
%TO.C,K6*%
X135890000Y-60960000D03*
D12*
X130810000Y-60960000D03*
X140970000Y-60960000D03*
D13*
X138430000Y-55880000D03*
X132080000Y-58420000D03*
%TD*%
D11*
%TO.C,K5*%
X116840000Y-137160000D03*
D12*
X111760000Y-137160000D03*
X121920000Y-137160000D03*
D13*
X119380000Y-132080000D03*
X113030000Y-134620000D03*
%TD*%
D11*
%TO.C,K4*%
X116840000Y-118110000D03*
D12*
X111760000Y-118110000D03*
X121920000Y-118110000D03*
D13*
X119380000Y-113030000D03*
X113030000Y-115570000D03*
%TD*%
D11*
%TO.C,K1*%
X116840000Y-60960000D03*
D12*
X111760000Y-60960000D03*
X121920000Y-60960000D03*
D13*
X119380000Y-55880000D03*
X113030000Y-58420000D03*
%TD*%
D18*
%TO.C,JOLED1*%
X93980000Y-88265000D03*
D19*
X96520000Y-88265000D03*
X99060000Y-88265000D03*
X101600000Y-88265000D03*
%TD*%
M02*
